<mxfile host="app.diagrams.net" agent="Mozilla/5.0 (Windows NT 10.0; Win64; x64) AppleWebKit/537.36 (KHTML, like Gecko) Chrome/136.0.0.0 Safari/537.36 Edg/136.0.0.0" version="27.0.5" pages="3">
  <diagram name="UC Tong Quat" id="9S1R43ozROQuWy4DLPcr">
    <mxGraphModel dx="1418" dy="786" grid="1" gridSize="10" guides="1" tooltips="1" connect="1" arrows="1" fold="1" page="1" pageScale="1" pageWidth="850" pageHeight="1100" math="0" shadow="0">
      <root>
        <mxCell id="0" />
        <mxCell id="1" parent="0" />
        <mxCell id="YaOsJ1xMAbOL_Ha8P3YV-18" value="" style="group;fontSize=16;" parent="1" vertex="1" connectable="0">
          <mxGeometry x="750" y="320" width="160" height="70" as="geometry" />
        </mxCell>
        <mxCell id="YaOsJ1xMAbOL_Ha8P3YV-19" value="" style="ellipse;whiteSpace=wrap;html=1;fontSize=16;" parent="YaOsJ1xMAbOL_Ha8P3YV-18" vertex="1">
          <mxGeometry x="50" width="60" height="40" as="geometry" />
        </mxCell>
        <mxCell id="YaOsJ1xMAbOL_Ha8P3YV-20" value="DangNhap" style="text;html=1;align=center;verticalAlign=middle;resizable=0;points=[];autosize=1;strokeColor=none;fillColor=none;fontSize=16;" parent="YaOsJ1xMAbOL_Ha8P3YV-18" vertex="1">
          <mxGeometry x="30" y="40" width="100" height="30" as="geometry" />
        </mxCell>
        <mxCell id="YaOsJ1xMAbOL_Ha8P3YV-8" value="" style="edgeStyle=orthogonalEdgeStyle;rounded=0;orthogonalLoop=1;jettySize=auto;html=1;dashed=1;fontSize=16;" parent="1" source="YaOsJ1xMAbOL_Ha8P3YV-1" target="YaOsJ1xMAbOL_Ha8P3YV-2" edge="1">
          <mxGeometry relative="1" as="geometry" />
        </mxCell>
        <mxCell id="YaOsJ1xMAbOL_Ha8P3YV-11" value="&amp;lt;&amp;lt;Include&amp;gt;&amp;gt;" style="edgeLabel;html=1;align=center;verticalAlign=middle;resizable=0;points=[];fontSize=16;" parent="YaOsJ1xMAbOL_Ha8P3YV-8" vertex="1" connectable="0">
          <mxGeometry x="-0.0667" y="3" relative="1" as="geometry">
            <mxPoint as="offset" />
          </mxGeometry>
        </mxCell>
        <mxCell id="YaOsJ1xMAbOL_Ha8P3YV-1" value="Admin&lt;div&gt;&lt;br&gt;&lt;/div&gt;" style="shape=umlActor;verticalLabelPosition=bottom;verticalAlign=top;html=1;outlineConnect=0;fontSize=16;" parent="1" vertex="1">
          <mxGeometry x="122.5" y="440" width="30" height="60" as="geometry" />
        </mxCell>
        <mxCell id="YaOsJ1xMAbOL_Ha8P3YV-9" value="" style="edgeStyle=orthogonalEdgeStyle;rounded=0;orthogonalLoop=1;jettySize=auto;html=1;dashed=1;fontSize=16;" parent="1" source="YaOsJ1xMAbOL_Ha8P3YV-2" target="YaOsJ1xMAbOL_Ha8P3YV-3" edge="1">
          <mxGeometry relative="1" as="geometry" />
        </mxCell>
        <mxCell id="YaOsJ1xMAbOL_Ha8P3YV-12" value="&amp;lt;&amp;lt;extend&amp;gt;&amp;gt;" style="edgeLabel;html=1;align=center;verticalAlign=middle;resizable=0;points=[];fontSize=16;" parent="YaOsJ1xMAbOL_Ha8P3YV-9" vertex="1" connectable="0">
          <mxGeometry x="-0.2222" y="-1" relative="1" as="geometry">
            <mxPoint as="offset" />
          </mxGeometry>
        </mxCell>
        <mxCell id="YaOsJ1xMAbOL_Ha8P3YV-2" value="Manager" style="shape=umlActor;verticalLabelPosition=bottom;verticalAlign=top;html=1;outlineConnect=0;fontSize=16;" parent="1" vertex="1">
          <mxGeometry x="122.5" y="290" width="30" height="60" as="geometry" />
        </mxCell>
        <mxCell id="YaOsJ1xMAbOL_Ha8P3YV-3" value="User" style="shape=umlActor;verticalLabelPosition=bottom;verticalAlign=top;html=1;outlineConnect=0;fontSize=16;" parent="1" vertex="1">
          <mxGeometry x="120" y="120" width="35" height="60" as="geometry" />
        </mxCell>
        <mxCell id="YaOsJ1xMAbOL_Ha8P3YV-17" value="" style="group;flipH=0;flipV=0;fontSize=16;" parent="1" vertex="1" connectable="0">
          <mxGeometry x="357.5" y="40" width="160" height="70" as="geometry" />
        </mxCell>
        <mxCell id="YaOsJ1xMAbOL_Ha8P3YV-15" value="" style="ellipse;whiteSpace=wrap;html=1;fontSize=16;" parent="YaOsJ1xMAbOL_Ha8P3YV-17" vertex="1">
          <mxGeometry x="50" width="60" height="40" as="geometry" />
        </mxCell>
        <mxCell id="YaOsJ1xMAbOL_Ha8P3YV-16" value="XemProject" style="text;html=1;align=center;verticalAlign=middle;resizable=0;points=[];autosize=1;strokeColor=none;fillColor=none;fontSize=16;" parent="YaOsJ1xMAbOL_Ha8P3YV-17" vertex="1">
          <mxGeometry x="25" y="40" width="110" height="30" as="geometry" />
        </mxCell>
        <mxCell id="YaOsJ1xMAbOL_Ha8P3YV-27" value="" style="group;flipH=0;flipV=0;fontSize=16;" parent="1" vertex="1" connectable="0">
          <mxGeometry x="357.5" y="120" width="180" height="70" as="geometry" />
        </mxCell>
        <mxCell id="YaOsJ1xMAbOL_Ha8P3YV-28" value="" style="ellipse;whiteSpace=wrap;html=1;fontSize=16;" parent="YaOsJ1xMAbOL_Ha8P3YV-27" vertex="1">
          <mxGeometry x="50" width="60" height="40" as="geometry" />
        </mxCell>
        <mxCell id="YaOsJ1xMAbOL_Ha8P3YV-29" value="XemTask" style="text;html=1;align=center;verticalAlign=middle;resizable=0;points=[];autosize=1;strokeColor=none;fillColor=none;fontSize=16;" parent="YaOsJ1xMAbOL_Ha8P3YV-27" vertex="1">
          <mxGeometry x="35" y="40" width="90" height="30" as="geometry" />
        </mxCell>
        <mxCell id="YaOsJ1xMAbOL_Ha8P3YV-33" value="" style="group;fontSize=16;" parent="1" vertex="1" connectable="0">
          <mxGeometry x="357.5" y="380" width="160" height="70" as="geometry" />
        </mxCell>
        <mxCell id="YaOsJ1xMAbOL_Ha8P3YV-34" value="" style="ellipse;whiteSpace=wrap;html=1;fontSize=16;" parent="YaOsJ1xMAbOL_Ha8P3YV-33" vertex="1">
          <mxGeometry x="50" width="60" height="40" as="geometry" />
        </mxCell>
        <mxCell id="YaOsJ1xMAbOL_Ha8P3YV-35" value="QuanLyProject" style="text;html=1;align=center;verticalAlign=middle;resizable=0;points=[];autosize=1;strokeColor=none;fillColor=none;fontSize=16;" parent="YaOsJ1xMAbOL_Ha8P3YV-33" vertex="1">
          <mxGeometry x="15" y="40" width="130" height="30" as="geometry" />
        </mxCell>
        <mxCell id="YaOsJ1xMAbOL_Ha8P3YV-45" value="" style="group;fontSize=16;" parent="1" vertex="1" connectable="0">
          <mxGeometry x="357.5" y="290" width="160" height="70" as="geometry" />
        </mxCell>
        <mxCell id="YaOsJ1xMAbOL_Ha8P3YV-46" value="" style="ellipse;whiteSpace=wrap;html=1;fontSize=16;" parent="YaOsJ1xMAbOL_Ha8P3YV-45" vertex="1">
          <mxGeometry x="50" width="60" height="40" as="geometry" />
        </mxCell>
        <mxCell id="YaOsJ1xMAbOL_Ha8P3YV-47" value="QuanLyTask" style="text;html=1;align=center;verticalAlign=middle;resizable=0;points=[];autosize=1;strokeColor=none;fillColor=none;fontSize=16;" parent="YaOsJ1xMAbOL_Ha8P3YV-45" vertex="1">
          <mxGeometry x="25" y="40" width="110" height="30" as="geometry" />
        </mxCell>
        <mxCell id="YaOsJ1xMAbOL_Ha8P3YV-30" value="" style="group;fontSize=16;" parent="1" vertex="1" connectable="0">
          <mxGeometry x="355" y="470" width="160" height="70" as="geometry" />
        </mxCell>
        <mxCell id="YaOsJ1xMAbOL_Ha8P3YV-31" value="" style="ellipse;whiteSpace=wrap;html=1;fontSize=16;" parent="YaOsJ1xMAbOL_Ha8P3YV-30" vertex="1">
          <mxGeometry x="50" width="60" height="40" as="geometry" />
        </mxCell>
        <mxCell id="YaOsJ1xMAbOL_Ha8P3YV-32" value="QuanLyUser" style="text;html=1;align=center;verticalAlign=middle;resizable=0;points=[];autosize=1;strokeColor=none;fillColor=none;fontSize=16;" parent="YaOsJ1xMAbOL_Ha8P3YV-30" vertex="1">
          <mxGeometry x="25" y="40" width="110" height="30" as="geometry" />
        </mxCell>
        <mxCell id="YaOsJ1xMAbOL_Ha8P3YV-53" value="" style="endArrow=classic;html=1;rounded=0;exitX=1;exitY=0.3333333333333333;exitDx=0;exitDy=0;exitPerimeter=0;fontSize=16;" parent="1" source="YaOsJ1xMAbOL_Ha8P3YV-3" edge="1">
          <mxGeometry width="50" height="50" relative="1" as="geometry">
            <mxPoint x="167.5" y="150" as="sourcePoint" />
            <mxPoint x="407.5" y="60" as="targetPoint" />
          </mxGeometry>
        </mxCell>
        <mxCell id="YaOsJ1xMAbOL_Ha8P3YV-54" value="" style="endArrow=classic;html=1;rounded=0;fontSize=16;" parent="1" source="YaOsJ1xMAbOL_Ha8P3YV-3" edge="1">
          <mxGeometry width="50" height="50" relative="1" as="geometry">
            <mxPoint x="167.5" y="160" as="sourcePoint" />
            <mxPoint x="397.5" y="150" as="targetPoint" />
          </mxGeometry>
        </mxCell>
        <mxCell id="YaOsJ1xMAbOL_Ha8P3YV-55" value="" style="endArrow=classic;html=1;rounded=0;entryX=0;entryY=0.5;entryDx=0;entryDy=0;fontSize=16;" parent="1" source="YaOsJ1xMAbOL_Ha8P3YV-2" target="YaOsJ1xMAbOL_Ha8P3YV-46" edge="1">
          <mxGeometry width="50" height="50" relative="1" as="geometry">
            <mxPoint x="167.5" y="380" as="sourcePoint" />
            <mxPoint x="410" y="410" as="targetPoint" />
          </mxGeometry>
        </mxCell>
        <mxCell id="YaOsJ1xMAbOL_Ha8P3YV-56" value="" style="endArrow=classic;html=1;rounded=0;fontSize=16;" parent="1" source="YaOsJ1xMAbOL_Ha8P3YV-2" target="YaOsJ1xMAbOL_Ha8P3YV-34" edge="1">
          <mxGeometry width="50" height="50" relative="1" as="geometry">
            <mxPoint x="167.5" y="390" as="sourcePoint" />
            <mxPoint x="410" y="500" as="targetPoint" />
          </mxGeometry>
        </mxCell>
        <mxCell id="YaOsJ1xMAbOL_Ha8P3YV-59" value="" style="endArrow=classic;html=1;rounded=0;entryX=0;entryY=0.5;entryDx=0;entryDy=0;exitX=1;exitY=0.3333333333333333;exitDx=0;exitDy=0;exitPerimeter=0;fontSize=16;" parent="1" source="YaOsJ1xMAbOL_Ha8P3YV-1" target="YaOsJ1xMAbOL_Ha8P3YV-31" edge="1">
          <mxGeometry width="50" height="50" relative="1" as="geometry">
            <mxPoint x="157.5" y="640" as="sourcePoint" />
            <mxPoint x="397.5" y="590" as="targetPoint" />
          </mxGeometry>
        </mxCell>
        <mxCell id="YaOsJ1xMAbOL_Ha8P3YV-61" value="" style="endArrow=classic;html=1;rounded=0;dashed=1;entryX=0;entryY=0;entryDx=0;entryDy=0;exitX=1;exitY=1;exitDx=0;exitDy=0;fontSize=16;" parent="1" source="YaOsJ1xMAbOL_Ha8P3YV-15" target="YaOsJ1xMAbOL_Ha8P3YV-19" edge="1">
          <mxGeometry width="50" height="50" relative="1" as="geometry">
            <mxPoint x="477.5" y="70" as="sourcePoint" />
            <mxPoint x="717.5" y="360" as="targetPoint" />
          </mxGeometry>
        </mxCell>
        <mxCell id="YaOsJ1xMAbOL_Ha8P3YV-63" value="&amp;lt;&amp;lt;include&amp;gt;&amp;gt;" style="edgeLabel;html=1;align=center;verticalAlign=middle;resizable=0;points=[];fontSize=16;" parent="YaOsJ1xMAbOL_Ha8P3YV-61" vertex="1" connectable="0">
          <mxGeometry x="-0.0436" relative="1" as="geometry">
            <mxPoint as="offset" />
          </mxGeometry>
        </mxCell>
        <mxCell id="YaOsJ1xMAbOL_Ha8P3YV-64" value="" style="endArrow=classic;html=1;rounded=0;dashed=1;entryX=0;entryY=0.5;entryDx=0;entryDy=0;fontSize=16;" parent="1" source="YaOsJ1xMAbOL_Ha8P3YV-28" target="YaOsJ1xMAbOL_Ha8P3YV-19" edge="1">
          <mxGeometry width="50" height="50" relative="1" as="geometry">
            <mxPoint x="477.5" y="140" as="sourcePoint" />
            <mxPoint x="727.5" y="370" as="targetPoint" />
          </mxGeometry>
        </mxCell>
        <mxCell id="YaOsJ1xMAbOL_Ha8P3YV-65" value="&amp;lt;&amp;lt;include&amp;gt;&amp;gt;" style="edgeLabel;html=1;align=center;verticalAlign=middle;resizable=0;points=[];fontSize=16;" parent="YaOsJ1xMAbOL_Ha8P3YV-64" vertex="1" connectable="0">
          <mxGeometry x="-0.0436" relative="1" as="geometry">
            <mxPoint as="offset" />
          </mxGeometry>
        </mxCell>
        <mxCell id="YaOsJ1xMAbOL_Ha8P3YV-70" value="" style="endArrow=classic;html=1;rounded=0;dashed=1;entryX=0;entryY=1;entryDx=0;entryDy=0;fontSize=16;" parent="1" target="YaOsJ1xMAbOL_Ha8P3YV-19" edge="1">
          <mxGeometry width="50" height="50" relative="1" as="geometry">
            <mxPoint x="477.5" y="410" as="sourcePoint" />
            <mxPoint x="757.5" y="400" as="targetPoint" />
          </mxGeometry>
        </mxCell>
        <mxCell id="YaOsJ1xMAbOL_Ha8P3YV-71" value="&amp;lt;&amp;lt;include&amp;gt;&amp;gt;" style="edgeLabel;html=1;align=center;verticalAlign=middle;resizable=0;points=[];fontSize=16;" parent="YaOsJ1xMAbOL_Ha8P3YV-70" vertex="1" connectable="0">
          <mxGeometry x="-0.0436" relative="1" as="geometry">
            <mxPoint as="offset" />
          </mxGeometry>
        </mxCell>
        <mxCell id="YaOsJ1xMAbOL_Ha8P3YV-72" value="" style="endArrow=classic;html=1;rounded=0;dashed=1;entryX=0.33;entryY=-0.067;entryDx=0;entryDy=0;entryPerimeter=0;fontSize=16;" parent="1" target="YaOsJ1xMAbOL_Ha8P3YV-20" edge="1">
          <mxGeometry width="50" height="50" relative="1" as="geometry">
            <mxPoint x="477.5" y="500" as="sourcePoint" />
            <mxPoint x="767.5" y="410" as="targetPoint" />
          </mxGeometry>
        </mxCell>
        <mxCell id="YaOsJ1xMAbOL_Ha8P3YV-73" value="&amp;lt;&amp;lt;include&amp;gt;&amp;gt;" style="edgeLabel;html=1;align=center;verticalAlign=middle;resizable=0;points=[];fontSize=16;" parent="YaOsJ1xMAbOL_Ha8P3YV-72" vertex="1" connectable="0">
          <mxGeometry x="-0.0436" relative="1" as="geometry">
            <mxPoint as="offset" />
          </mxGeometry>
        </mxCell>
        <mxCell id="YaOsJ1xMAbOL_Ha8P3YV-76" value="" style="endArrow=classic;html=1;rounded=0;dashed=1;exitX=1;exitY=0.5;exitDx=0;exitDy=0;fontSize=16;" parent="1" source="YaOsJ1xMAbOL_Ha8P3YV-46" edge="1">
          <mxGeometry width="50" height="50" relative="1" as="geometry">
            <mxPoint x="477.5" y="680.941162109375" as="sourcePoint" />
            <mxPoint x="810" y="350" as="targetPoint" />
          </mxGeometry>
        </mxCell>
        <mxCell id="YaOsJ1xMAbOL_Ha8P3YV-77" value="&amp;lt;&amp;lt;include&amp;gt;&amp;gt;" style="edgeLabel;html=1;align=center;verticalAlign=middle;resizable=0;points=[];fontSize=16;" parent="YaOsJ1xMAbOL_Ha8P3YV-76" vertex="1" connectable="0">
          <mxGeometry x="-0.0436" relative="1" as="geometry">
            <mxPoint as="offset" />
          </mxGeometry>
        </mxCell>
        <mxCell id="x5jWwlEajEEI2-2rpGKw-1" value="" style="group;flipH=0;flipV=0;fontSize=16;" parent="1" vertex="1" connectable="0">
          <mxGeometry x="357.5" y="200" width="195" height="70" as="geometry" />
        </mxCell>
        <mxCell id="x5jWwlEajEEI2-2rpGKw-2" value="" style="ellipse;whiteSpace=wrap;html=1;fontSize=16;" parent="x5jWwlEajEEI2-2rpGKw-1" vertex="1">
          <mxGeometry x="50" width="60" height="40" as="geometry" />
        </mxCell>
        <mxCell id="x5jWwlEajEEI2-2rpGKw-3" value="CapNhatTrangThaiSubtask" style="text;html=1;align=center;verticalAlign=middle;resizable=0;points=[];autosize=1;strokeColor=none;fillColor=none;fontSize=16;" parent="x5jWwlEajEEI2-2rpGKw-1" vertex="1">
          <mxGeometry x="-30" y="40" width="220" height="30" as="geometry" />
        </mxCell>
        <mxCell id="x5jWwlEajEEI2-2rpGKw-4" value="" style="endArrow=classic;html=1;rounded=0;dashed=1;entryX=0;entryY=0.5;entryDx=0;entryDy=0;exitX=1;exitY=0.5;exitDx=0;exitDy=0;fontSize=16;" parent="1" source="x5jWwlEajEEI2-2rpGKw-2" edge="1">
          <mxGeometry width="50" height="50" relative="1" as="geometry">
            <mxPoint x="471" y="163" as="sourcePoint" />
            <mxPoint x="810" y="350" as="targetPoint" />
          </mxGeometry>
        </mxCell>
        <mxCell id="x5jWwlEajEEI2-2rpGKw-5" value="&amp;lt;&amp;lt;include&amp;gt;&amp;gt;" style="edgeLabel;html=1;align=center;verticalAlign=middle;resizable=0;points=[];fontSize=16;" parent="x5jWwlEajEEI2-2rpGKw-4" vertex="1" connectable="0">
          <mxGeometry x="-0.0436" relative="1" as="geometry">
            <mxPoint as="offset" />
          </mxGeometry>
        </mxCell>
        <mxCell id="x5jWwlEajEEI2-2rpGKw-6" value="" style="endArrow=classic;html=1;rounded=0;entryX=0;entryY=0.5;entryDx=0;entryDy=0;fontSize=16;" parent="1" source="YaOsJ1xMAbOL_Ha8P3YV-3" target="x5jWwlEajEEI2-2rpGKw-2" edge="1">
          <mxGeometry width="50" height="50" relative="1" as="geometry">
            <mxPoint x="165" y="160" as="sourcePoint" />
            <mxPoint x="407.5" y="160" as="targetPoint" />
          </mxGeometry>
        </mxCell>
      </root>
    </mxGraphModel>
  </diagram>
  <diagram id="GndlO12IzU0oHpE4Z7Wi" name="UC Chinh">
    <mxGraphModel dx="1418" dy="786" grid="1" gridSize="10" guides="1" tooltips="1" connect="1" arrows="1" fold="1" page="1" pageScale="1" pageWidth="850" pageHeight="1100" math="0" shadow="0">
      <root>
        <mxCell id="0" />
        <mxCell id="1" parent="0" />
        <mxCell id="INsdZp5M9OVW3Z2ed78_-1" value="" style="group;fontSize=16;" parent="1" vertex="1" connectable="0">
          <mxGeometry x="770" y="200" width="160" height="70" as="geometry" />
        </mxCell>
        <mxCell id="INsdZp5M9OVW3Z2ed78_-2" value="" style="ellipse;whiteSpace=wrap;html=1;fontSize=16;" parent="INsdZp5M9OVW3Z2ed78_-1" vertex="1">
          <mxGeometry x="50" width="60" height="40" as="geometry" />
        </mxCell>
        <mxCell id="INsdZp5M9OVW3Z2ed78_-3" value="DangNhap" style="text;html=1;align=center;verticalAlign=middle;resizable=0;points=[];autosize=1;strokeColor=none;fillColor=none;fontSize=16;" parent="INsdZp5M9OVW3Z2ed78_-1" vertex="1">
          <mxGeometry x="30" y="40" width="100" height="30" as="geometry" />
        </mxCell>
        <mxCell id="INsdZp5M9OVW3Z2ed78_-5" value="Admin&lt;div&gt;&lt;br&gt;&lt;/div&gt;" style="shape=umlActor;verticalLabelPosition=bottom;verticalAlign=top;html=1;outlineConnect=0;fontSize=16;" parent="1" vertex="1">
          <mxGeometry x="119.5" y="300" width="30" height="60" as="geometry" />
        </mxCell>
        <mxCell id="INsdZp5M9OVW3Z2ed78_-6" value="Manager" style="shape=umlActor;verticalLabelPosition=bottom;verticalAlign=top;html=1;outlineConnect=0;fontSize=16;" parent="1" vertex="1">
          <mxGeometry x="119.5" y="130" width="30" height="60" as="geometry" />
        </mxCell>
        <mxCell id="INsdZp5M9OVW3Z2ed78_-7" value="" style="group;fontSize=16;" parent="1" vertex="1" connectable="0">
          <mxGeometry x="357.5" y="190" width="160" height="70" as="geometry" />
        </mxCell>
        <mxCell id="INsdZp5M9OVW3Z2ed78_-8" value="" style="ellipse;whiteSpace=wrap;html=1;fontSize=16;" parent="INsdZp5M9OVW3Z2ed78_-7" vertex="1">
          <mxGeometry x="50" width="60" height="40" as="geometry" />
        </mxCell>
        <mxCell id="INsdZp5M9OVW3Z2ed78_-9" value="QuanLyProject" style="text;html=1;align=center;verticalAlign=middle;resizable=0;points=[];autosize=1;strokeColor=none;fillColor=none;fontSize=16;" parent="INsdZp5M9OVW3Z2ed78_-7" vertex="1">
          <mxGeometry x="15" y="40" width="130" height="30" as="geometry" />
        </mxCell>
        <mxCell id="INsdZp5M9OVW3Z2ed78_-13" value="" style="group;fontSize=16;" parent="1" vertex="1" connectable="0">
          <mxGeometry x="357.5" y="100" width="160" height="70" as="geometry" />
        </mxCell>
        <mxCell id="INsdZp5M9OVW3Z2ed78_-14" value="" style="ellipse;whiteSpace=wrap;html=1;fontSize=16;" parent="INsdZp5M9OVW3Z2ed78_-13" vertex="1">
          <mxGeometry x="50" width="60" height="40" as="geometry" />
        </mxCell>
        <mxCell id="INsdZp5M9OVW3Z2ed78_-15" value="QuanLyTask" style="text;html=1;align=center;verticalAlign=middle;resizable=0;points=[];autosize=1;strokeColor=none;fillColor=none;fontSize=16;" parent="INsdZp5M9OVW3Z2ed78_-13" vertex="1">
          <mxGeometry x="25" y="40" width="110" height="30" as="geometry" />
        </mxCell>
        <mxCell id="INsdZp5M9OVW3Z2ed78_-16" value="" style="group;fontSize=16;" parent="1" vertex="1" connectable="0">
          <mxGeometry x="355" y="280" width="160" height="70" as="geometry" />
        </mxCell>
        <mxCell id="INsdZp5M9OVW3Z2ed78_-17" value="" style="ellipse;whiteSpace=wrap;html=1;fontSize=16;" parent="INsdZp5M9OVW3Z2ed78_-16" vertex="1">
          <mxGeometry x="50" width="60" height="40" as="geometry" />
        </mxCell>
        <mxCell id="INsdZp5M9OVW3Z2ed78_-18" value="QuanLyUser" style="text;html=1;align=center;verticalAlign=middle;resizable=0;points=[];autosize=1;strokeColor=none;fillColor=none;fontSize=16;" parent="INsdZp5M9OVW3Z2ed78_-16" vertex="1">
          <mxGeometry x="25" y="40" width="110" height="30" as="geometry" />
        </mxCell>
        <mxCell id="INsdZp5M9OVW3Z2ed78_-19" value="" style="endArrow=classic;html=1;rounded=0;entryX=0;entryY=0.5;entryDx=0;entryDy=0;fontSize=16;" parent="1" source="INsdZp5M9OVW3Z2ed78_-6" target="INsdZp5M9OVW3Z2ed78_-14" edge="1">
          <mxGeometry width="50" height="50" relative="1" as="geometry">
            <mxPoint x="167.5" y="190" as="sourcePoint" />
            <mxPoint x="410" y="220" as="targetPoint" />
          </mxGeometry>
        </mxCell>
        <mxCell id="INsdZp5M9OVW3Z2ed78_-20" value="" style="endArrow=classic;html=1;rounded=0;fontSize=16;" parent="1" source="INsdZp5M9OVW3Z2ed78_-6" target="INsdZp5M9OVW3Z2ed78_-8" edge="1">
          <mxGeometry width="50" height="50" relative="1" as="geometry">
            <mxPoint x="167.5" y="200" as="sourcePoint" />
            <mxPoint x="410" y="310" as="targetPoint" />
          </mxGeometry>
        </mxCell>
        <mxCell id="INsdZp5M9OVW3Z2ed78_-21" value="" style="endArrow=classic;html=1;rounded=0;entryX=0;entryY=0.5;entryDx=0;entryDy=0;exitX=1;exitY=0.3333333333333333;exitDx=0;exitDy=0;exitPerimeter=0;fontSize=16;" parent="1" source="INsdZp5M9OVW3Z2ed78_-5" target="INsdZp5M9OVW3Z2ed78_-17" edge="1">
          <mxGeometry width="50" height="50" relative="1" as="geometry">
            <mxPoint x="157.5" y="450" as="sourcePoint" />
            <mxPoint x="397.5" y="400" as="targetPoint" />
          </mxGeometry>
        </mxCell>
        <mxCell id="INsdZp5M9OVW3Z2ed78_-23" value="" style="endArrow=classic;html=1;rounded=0;dashed=1;entryX=0;entryY=1;entryDx=0;entryDy=0;fontSize=16;" parent="1" target="INsdZp5M9OVW3Z2ed78_-2" edge="1">
          <mxGeometry width="50" height="50" relative="1" as="geometry">
            <mxPoint x="477.5" y="220" as="sourcePoint" />
            <mxPoint x="757.5" y="210" as="targetPoint" />
          </mxGeometry>
        </mxCell>
        <mxCell id="INsdZp5M9OVW3Z2ed78_-24" value="&amp;lt;&amp;lt;include&amp;gt;&amp;gt;" style="edgeLabel;html=1;align=center;verticalAlign=middle;resizable=0;points=[];fontSize=16;" parent="INsdZp5M9OVW3Z2ed78_-23" vertex="1" connectable="0">
          <mxGeometry x="-0.0436" relative="1" as="geometry">
            <mxPoint as="offset" />
          </mxGeometry>
        </mxCell>
        <mxCell id="INsdZp5M9OVW3Z2ed78_-25" value="" style="endArrow=classic;html=1;rounded=0;dashed=1;entryX=0;entryY=1;entryDx=0;entryDy=0;fontSize=16;" parent="1" target="INsdZp5M9OVW3Z2ed78_-2" edge="1">
          <mxGeometry width="50" height="50" relative="1" as="geometry">
            <mxPoint x="477.5" y="310" as="sourcePoint" />
            <mxPoint x="767.5" y="220" as="targetPoint" />
          </mxGeometry>
        </mxCell>
        <mxCell id="INsdZp5M9OVW3Z2ed78_-26" value="&amp;lt;&amp;lt;include&amp;gt;&amp;gt;" style="edgeLabel;html=1;align=center;verticalAlign=middle;resizable=0;points=[];fontSize=16;" parent="INsdZp5M9OVW3Z2ed78_-25" vertex="1" connectable="0">
          <mxGeometry x="-0.0436" relative="1" as="geometry">
            <mxPoint as="offset" />
          </mxGeometry>
        </mxCell>
        <mxCell id="INsdZp5M9OVW3Z2ed78_-31" value="" style="endArrow=classic;html=1;rounded=0;dashed=1;entryX=0.02;entryY=0.715;entryDx=0;entryDy=0;entryPerimeter=0;fontSize=16;" parent="1" source="INsdZp5M9OVW3Z2ed78_-14" target="INsdZp5M9OVW3Z2ed78_-2" edge="1">
          <mxGeometry width="50" height="50" relative="1" as="geometry">
            <mxPoint x="487.5" y="230" as="sourcePoint" />
            <mxPoint x="819" y="174" as="targetPoint" />
          </mxGeometry>
        </mxCell>
        <mxCell id="INsdZp5M9OVW3Z2ed78_-32" value="&amp;lt;&amp;lt;include&amp;gt;&amp;gt;" style="edgeLabel;html=1;align=center;verticalAlign=middle;resizable=0;points=[];fontSize=16;" parent="INsdZp5M9OVW3Z2ed78_-31" vertex="1" connectable="0">
          <mxGeometry x="-0.0436" relative="1" as="geometry">
            <mxPoint as="offset" />
          </mxGeometry>
        </mxCell>
        <mxCell id="UT14cDBNeasm9pV6VDeX-1" value="" style="edgeStyle=orthogonalEdgeStyle;rounded=0;orthogonalLoop=1;jettySize=auto;html=1;dashed=1;exitX=0.5;exitY=0;exitDx=0;exitDy=0;exitPerimeter=0;fontSize=16;" parent="1" source="INsdZp5M9OVW3Z2ed78_-5" target="INsdZp5M9OVW3Z2ed78_-6" edge="1">
          <mxGeometry relative="1" as="geometry">
            <mxPoint x="134" y="260" as="sourcePoint" />
            <mxPoint x="134" y="170" as="targetPoint" />
          </mxGeometry>
        </mxCell>
        <mxCell id="UT14cDBNeasm9pV6VDeX-2" value="&amp;lt;&amp;lt;Include&amp;gt;&amp;gt;" style="edgeLabel;html=1;align=center;verticalAlign=middle;resizable=0;points=[];fontSize=16;" parent="UT14cDBNeasm9pV6VDeX-1" vertex="1" connectable="0">
          <mxGeometry x="-0.0667" y="3" relative="1" as="geometry">
            <mxPoint as="offset" />
          </mxGeometry>
        </mxCell>
      </root>
    </mxGraphModel>
  </diagram>
  <diagram id="1EMdAqf8j8QWKOsfTSe6" name="UC Thu Cap">
    <mxGraphModel dx="1418" dy="786" grid="1" gridSize="10" guides="1" tooltips="1" connect="1" arrows="1" fold="1" page="1" pageScale="1" pageWidth="850" pageHeight="1100" math="0" shadow="0">
      <root>
        <mxCell id="0" />
        <mxCell id="1" parent="0" />
        <mxCell id="X-BJq50M-NFpvbiij6tk-1" value="" style="group;fontSize=16;" parent="1" vertex="1" connectable="0">
          <mxGeometry x="610" y="130" width="160" height="70" as="geometry" />
        </mxCell>
        <mxCell id="X-BJq50M-NFpvbiij6tk-2" value="" style="ellipse;whiteSpace=wrap;html=1;fontSize=16;" parent="X-BJq50M-NFpvbiij6tk-1" vertex="1">
          <mxGeometry x="50" width="60" height="40" as="geometry" />
        </mxCell>
        <mxCell id="X-BJq50M-NFpvbiij6tk-3" value="DangNhap" style="text;html=1;align=center;verticalAlign=middle;resizable=0;points=[];autosize=1;strokeColor=none;fillColor=none;fontSize=16;" parent="X-BJq50M-NFpvbiij6tk-1" vertex="1">
          <mxGeometry x="30" y="40" width="100" height="30" as="geometry" />
        </mxCell>
        <mxCell id="X-BJq50M-NFpvbiij6tk-4" value="User" style="shape=umlActor;verticalLabelPosition=bottom;verticalAlign=top;html=1;outlineConnect=0;fontSize=16;" parent="1" vertex="1">
          <mxGeometry x="120" y="120" width="35" height="60" as="geometry" />
        </mxCell>
        <mxCell id="X-BJq50M-NFpvbiij6tk-5" value="" style="group;flipH=0;flipV=0;fontSize=16;" parent="1" vertex="1" connectable="0">
          <mxGeometry x="357.5" y="40" width="160" height="70" as="geometry" />
        </mxCell>
        <mxCell id="X-BJq50M-NFpvbiij6tk-6" value="" style="ellipse;whiteSpace=wrap;html=1;fontSize=16;" parent="X-BJq50M-NFpvbiij6tk-5" vertex="1">
          <mxGeometry x="50" width="60" height="40" as="geometry" />
        </mxCell>
        <mxCell id="X-BJq50M-NFpvbiij6tk-7" value="XemProject" style="text;html=1;align=center;verticalAlign=middle;resizable=0;points=[];autosize=1;strokeColor=none;fillColor=none;fontSize=16;" parent="X-BJq50M-NFpvbiij6tk-5" vertex="1">
          <mxGeometry x="25" y="40" width="110" height="30" as="geometry" />
        </mxCell>
        <mxCell id="X-BJq50M-NFpvbiij6tk-8" value="" style="group;flipH=0;flipV=0;fontSize=16;" parent="1" vertex="1" connectable="0">
          <mxGeometry x="357.5" y="120" width="180" height="70" as="geometry" />
        </mxCell>
        <mxCell id="X-BJq50M-NFpvbiij6tk-9" value="" style="ellipse;whiteSpace=wrap;html=1;fontSize=16;" parent="X-BJq50M-NFpvbiij6tk-8" vertex="1">
          <mxGeometry x="50" width="60" height="40" as="geometry" />
        </mxCell>
        <mxCell id="X-BJq50M-NFpvbiij6tk-10" value="XemTask" style="text;html=1;align=center;verticalAlign=middle;resizable=0;points=[];autosize=1;strokeColor=none;fillColor=none;fontSize=16;" parent="X-BJq50M-NFpvbiij6tk-8" vertex="1">
          <mxGeometry x="35" y="40" width="90" height="30" as="geometry" />
        </mxCell>
        <mxCell id="X-BJq50M-NFpvbiij6tk-11" value="" style="endArrow=classic;html=1;rounded=0;exitX=1;exitY=0.3333333333333333;exitDx=0;exitDy=0;exitPerimeter=0;fontSize=16;" parent="1" source="X-BJq50M-NFpvbiij6tk-4" edge="1">
          <mxGeometry width="50" height="50" relative="1" as="geometry">
            <mxPoint x="167.5" y="150" as="sourcePoint" />
            <mxPoint x="407.5" y="60" as="targetPoint" />
          </mxGeometry>
        </mxCell>
        <mxCell id="X-BJq50M-NFpvbiij6tk-12" value="" style="endArrow=classic;html=1;rounded=0;fontSize=16;" parent="1" source="X-BJq50M-NFpvbiij6tk-4" edge="1">
          <mxGeometry width="50" height="50" relative="1" as="geometry">
            <mxPoint x="167.5" y="160" as="sourcePoint" />
            <mxPoint x="397.5" y="150" as="targetPoint" />
          </mxGeometry>
        </mxCell>
        <mxCell id="X-BJq50M-NFpvbiij6tk-13" value="" style="endArrow=classic;html=1;rounded=0;dashed=1;entryX=0;entryY=0;entryDx=0;entryDy=0;exitX=1;exitY=1;exitDx=0;exitDy=0;fontSize=16;" parent="1" source="X-BJq50M-NFpvbiij6tk-6" target="X-BJq50M-NFpvbiij6tk-2" edge="1">
          <mxGeometry width="50" height="50" relative="1" as="geometry">
            <mxPoint x="477.5" y="70" as="sourcePoint" />
            <mxPoint x="717.5" y="360" as="targetPoint" />
          </mxGeometry>
        </mxCell>
        <mxCell id="X-BJq50M-NFpvbiij6tk-14" value="&amp;lt;&amp;lt;include&amp;gt;&amp;gt;" style="edgeLabel;html=1;align=center;verticalAlign=middle;resizable=0;points=[];fontSize=16;" parent="X-BJq50M-NFpvbiij6tk-13" vertex="1" connectable="0">
          <mxGeometry x="-0.0436" relative="1" as="geometry">
            <mxPoint as="offset" />
          </mxGeometry>
        </mxCell>
        <mxCell id="X-BJq50M-NFpvbiij6tk-15" value="" style="endArrow=classic;html=1;rounded=0;dashed=1;entryX=0;entryY=0.5;entryDx=0;entryDy=0;fontSize=16;" parent="1" source="X-BJq50M-NFpvbiij6tk-9" target="X-BJq50M-NFpvbiij6tk-2" edge="1">
          <mxGeometry width="50" height="50" relative="1" as="geometry">
            <mxPoint x="477.5" y="140" as="sourcePoint" />
            <mxPoint x="727.5" y="370" as="targetPoint" />
          </mxGeometry>
        </mxCell>
        <mxCell id="X-BJq50M-NFpvbiij6tk-16" value="&amp;lt;&amp;lt;include&amp;gt;&amp;gt;" style="edgeLabel;html=1;align=center;verticalAlign=middle;resizable=0;points=[];fontSize=16;" parent="X-BJq50M-NFpvbiij6tk-15" vertex="1" connectable="0">
          <mxGeometry x="-0.0436" relative="1" as="geometry">
            <mxPoint as="offset" />
          </mxGeometry>
        </mxCell>
        <mxCell id="X-BJq50M-NFpvbiij6tk-17" value="" style="group;flipH=0;flipV=0;fontSize=16;" parent="1" vertex="1" connectable="0">
          <mxGeometry x="357.5" y="200" width="190" height="70" as="geometry" />
        </mxCell>
        <mxCell id="X-BJq50M-NFpvbiij6tk-18" value="" style="ellipse;whiteSpace=wrap;html=1;fontSize=16;" parent="X-BJq50M-NFpvbiij6tk-17" vertex="1">
          <mxGeometry x="50" width="60" height="40" as="geometry" />
        </mxCell>
        <mxCell id="X-BJq50M-NFpvbiij6tk-19" value="CapNhatTrangThaiSubtask" style="text;html=1;align=center;verticalAlign=middle;resizable=0;points=[];autosize=1;strokeColor=none;fillColor=none;fontSize=16;" parent="X-BJq50M-NFpvbiij6tk-17" vertex="1">
          <mxGeometry x="-30" y="40" width="220" height="30" as="geometry" />
        </mxCell>
        <mxCell id="X-BJq50M-NFpvbiij6tk-20" value="" style="endArrow=classic;html=1;rounded=0;dashed=1;exitX=1;exitY=0.5;exitDx=0;exitDy=0;fontSize=16;" parent="1" source="X-BJq50M-NFpvbiij6tk-18" target="X-BJq50M-NFpvbiij6tk-2" edge="1">
          <mxGeometry width="50" height="50" relative="1" as="geometry">
            <mxPoint x="471" y="163" as="sourcePoint" />
            <mxPoint x="810" y="350" as="targetPoint" />
          </mxGeometry>
        </mxCell>
        <mxCell id="X-BJq50M-NFpvbiij6tk-21" value="&amp;lt;&amp;lt;include&amp;gt;&amp;gt;" style="edgeLabel;html=1;align=center;verticalAlign=middle;resizable=0;points=[];fontSize=16;" parent="X-BJq50M-NFpvbiij6tk-20" vertex="1" connectable="0">
          <mxGeometry x="-0.0436" relative="1" as="geometry">
            <mxPoint as="offset" />
          </mxGeometry>
        </mxCell>
        <mxCell id="X-BJq50M-NFpvbiij6tk-22" value="" style="endArrow=classic;html=1;rounded=0;entryX=0;entryY=0.5;entryDx=0;entryDy=0;fontSize=16;" parent="1" source="X-BJq50M-NFpvbiij6tk-4" target="X-BJq50M-NFpvbiij6tk-18" edge="1">
          <mxGeometry width="50" height="50" relative="1" as="geometry">
            <mxPoint x="165" y="160" as="sourcePoint" />
            <mxPoint x="407.5" y="160" as="targetPoint" />
          </mxGeometry>
        </mxCell>
      </root>
    </mxGraphModel>
  </diagram>
</mxfile>
